<svg xmlns="http://www.w3.org/2000/svg" viewBox="0 0 64 64" fill="none">
  <path
    d="M32 9.5c3.59 0 6.5 2.91 6.5 6.5 0 2.47-1.38 4.62-3.4 5.71 6.73 2.14 11.4 8.43 11.4 15.79 0 4.36-1.87 8.28-4.88 11.01H22.38c-3.01-2.73-4.88-6.65-4.88-11.01 0-7.36 4.67-13.65 11.4-15.79A6.48 6.48 0 0 1 25.5 16c0-3.59 2.91-6.5 6.5-6.5Z"
    fill="#07090d"
    stroke="#f2ead7"
    stroke-width="2.2"
    stroke-linejoin="round"
  />
  <path
    d="M24.4 48.5h15.2"
    stroke="#f2ead7"
    stroke-width="3"
    stroke-linecap="round"
  />
  <path
    d="M19.4 52.5h25.2"
    stroke="#f2ead7"
    stroke-width="2.2"
    stroke-linecap="round"
  />
  <path
    d="M27.6 22.7h8.8"
    stroke="#ffffff"
    stroke-opacity=".25"
    stroke-width="1.8"
    stroke-linecap="round"
  />
</svg>
